<?xml version="1.0" encoding="UTF-8" standalone="no"?>
<!-- Created with Inkscape (http://www.inkscape.org/) -->
<svg xmlns:inkscape="http://www.inkscape.org/namespaces/inkscape" xmlns:rdf="http://www.w3.org/1999/02/22-rdf-syntax-ns#" xmlns="http://www.w3.org/2000/svg" xmlns:cc="http://creativecommons.org/ns#" xmlns:dc="http://purl.org/dc/elements/1.1/" xmlns:sodipodi="http://sodipodi.sourceforge.net/DTD/sodipodi-0.dtd" xmlns:svg="http://www.w3.org/2000/svg" xmlns:ns1="http://sozi.baierouge.fr" xmlns:xlink="http://www.w3.org/1999/xlink" id="svg5555" sodipodi:docname="cahier spirale.svg" viewBox="0 0 180.76 171.47" sodipodi:version="0.32" version="1.0" inkscape:output_extension="org.inkscape.output.svg.inkscape" inkscape:version="0.46">
  <sodipodi:namedview id="base" bordercolor="#666666" inkscape:pageshadow="2" inkscape:window-y="115" pagecolor="#ffffff" inkscape:window-height="713" inkscape:zoom="0.35" inkscape:window-x="384" showgrid="false" borderopacity="1.0" inkscape:current-layer="layer1" inkscape:cx="375" inkscape:cy="520" inkscape:window-width="1130" showborder="false" inkscape:pageopacity="0.0" inkscape:document-units="px" />
  <g id="layer1" inkscape:label="Calque 1" inkscape:groupmode="layer" transform="translate(-301.05 -403.77)">
    <path id="path5545" sodipodi:nodetypes="ccccc" style="stroke-linejoin:round;stroke:#000000;stroke-linecap:round;stroke-width:2;fill:#ffffff" d="m302.05 502.22l77.99 72.02 100.77-95.53-78.32-64.5-100.44 88.01z" />
    <path id="path5549" sodipodi:nodetypes="ccccc" style="stroke-linejoin:round;stroke-dashoffset:1.5;stroke:#000000;stroke-linecap:round;fill:#ffffff" d="m378.75 561.01l0.71 9.64 97.86-91.78v-11.43l-98.57 93.57z" />
    <path id="path5547" sodipodi:nodetypes="ccccc" style="stroke-linejoin:round;stroke-dashoffset:1.5;stroke:#000000;stroke-linecap:round;fill:#ffffff" d="m304.81 493.15l-0.35 6.79 75 70.89 0.01-10.18-74.66-67.5z" />
    <path id="path3373" sodipodi:nodetypes="ccccc" style="stroke-linejoin:round;stroke:#000000;stroke-linecap:round;stroke-width:2;fill:#ffffff" d="m303.22 491.08c25.76 23.4 48.03 49.42 77.36 70.15l98.89-93.75c-26.38-19.94-50.85-41.8-76.27-62.71l-99.98 86.31z" />
    <path id="path4666" sodipodi:nodetypes="ccccc" style="stroke-linejoin:round;stroke-dashoffset:1.5;stroke:#000000;stroke-linecap:round;fill:#ffffff" d="m311.96 494.25l2.21 1.94 10.29-8.99-1.85-1.55-10.65 8.6z" />
    <path id="path4664" sodipodi:nodetypes="ccccc" style="stroke-linejoin:round;stroke-dashoffset:1.5;stroke:#000000;stroke-linecap:round;fill:#ffffff" d="m314.46 493.87l7.15-6.08c-0.73-4.61-2.59-8.93-8.04-8.03l-8.03 7.32c6.46-1.45 8.09 0.9 8.92 6.79z" />
    <path id="path5517" sodipodi:nodetypes="ccccc" style="stroke-linejoin:round;stroke-dashoffset:1.5;stroke:#000000;stroke-linecap:round;fill:#ffffff" d="m324.11 483.33l2.2 1.94 10.3-8.99-1.85-1.55-10.65 8.6z" />
    <path id="path5519" sodipodi:nodetypes="ccccc" style="stroke-linejoin:round;stroke-dashoffset:1.5;stroke:#000000;stroke-linecap:round;fill:#ffffff" d="m326.25 483.3l7.14-6.07c-0.72-4.62-2.41-9.11-7.85-8.21l-8.22 7.5c6.47-1.45 8.09 0.9 8.93 6.78z" />
    <path id="path5521" sodipodi:nodetypes="ccccc" style="stroke-linejoin:round;stroke-dashoffset:1.5;stroke:#000000;stroke-linecap:round;fill:#ffffff" d="m336.25 473.08l2.21 1.93 10.29-8.98-1.85-1.55-10.65 8.6z" />
    <path id="path5523" sodipodi:nodetypes="ccccc" style="stroke-linejoin:round;stroke-dashoffset:1.5;stroke:#000000;stroke-linecap:round;fill:#ffffff" d="m338.75 472.69l7.14-6.07c-0.72-4.62-3.12-8.75-8.57-7.86l-7.86 6.97c6.47-1.45 8.45 1.08 9.29 6.96z" />
    <path id="path5525" sodipodi:nodetypes="ccccc" style="stroke-linejoin:round;stroke-dashoffset:1.5;stroke:#000000;stroke-linecap:round;fill:#ffffff" d="m349.11 462.52l2.2 1.93 10.3-8.99-1.85-1.55-10.65 8.61z" />
    <path id="path5527" sodipodi:nodetypes="ccccc" style="stroke-linejoin:round;stroke-dashoffset:1.5;stroke:#000000;stroke-linecap:round;fill:#ffffff" d="m351.25 462.13l7.14-6.07c-0.72-4.62-3.12-8.76-8.57-7.86l-7.32 6.79c6.47-1.45 7.91 1.26 8.75 7.14z" />
    <path id="path5529" sodipodi:nodetypes="ccccc" style="stroke-linejoin:round;stroke-dashoffset:1.5;stroke:#000000;stroke-linecap:round;fill:#ffffff" d="m361.25 452.36l2.21 1.94 10.29-8.99-1.85-1.55-10.65 8.6z" />
    <path id="path5531" sodipodi:nodetypes="ccccc" style="stroke-linejoin:round;stroke-dashoffset:1.5;stroke:#000000;stroke-linecap:round;fill:#ffffff" d="m363.75 451.98l7.14-6.07c-0.72-4.62-3.12-8.76-8.57-7.86l-7.5 7.14c6.47-1.45 8.09 0.9 8.93 6.79z" />
    <path id="path5533" sodipodi:nodetypes="ccccc" style="stroke-linejoin:round;stroke-dashoffset:1.5;stroke:#000000;stroke-linecap:round;fill:#ffffff" d="m373.04 441.8l2.2 1.94 10.3-8.99-1.85-1.55-10.65 8.6z" />
    <path id="path5535" sodipodi:nodetypes="ccccc" style="stroke-linejoin:round;stroke-dashoffset:1.5;stroke:#000000;stroke-linecap:round;fill:#ffffff" d="m375.18 441.77l7.14-6.07c-0.72-4.62-3.12-8.75-8.57-7.86l-7.5 7.15c6.47-1.45 8.09 0.9 8.93 6.78z" />
    <path id="path5537" sodipodi:nodetypes="ccccc" style="stroke-linejoin:round;stroke-dashoffset:1.5;stroke:#000000;stroke-linecap:round;fill:#ffffff" d="m385.18 431.29l2.21 1.94 10.29-8.99-1.85-1.55-10.65 8.6z" />
    <path id="path5539" sodipodi:nodetypes="ccccc" style="stroke-linejoin:round;stroke-dashoffset:1.5;stroke:#000000;stroke-linecap:round;fill:#ffffff" d="m387.68 430.91l7.14-6.08c-0.72-4.61-3.12-8.39-8.57-7.5l-7.5 6.79c6.47-1.45 8.09 0.9 8.93 6.79z" />
    <path id="path5541" sodipodi:nodetypes="ccccc" style="stroke-linejoin:round;stroke-dashoffset:1.5;stroke:#000000;stroke-linecap:round;fill:#ffffff" d="m396.96 420.73l2.21 1.93 10.29-8.98-1.85-1.55-10.65 8.6z" />
    <path id="path5543" sodipodi:nodetypes="ccccc" style="stroke-linejoin:round;stroke-dashoffset:1.5;stroke:#000000;stroke-linecap:round;fill:#ffffff" d="m399.11 420.7l7.14-6.07c-0.73-4.62-2.41-9.11-7.86-8.22l-8.21 7.5c6.47-1.44 8.09 0.91 8.93 6.79z" />
    <path id="path5551" sodipodi:nodetypes="ccccc" style="stroke-linejoin:round;stroke-dashoffset:1.5;stroke:#000000;stroke-linecap:round;fill:#ffffff" d="m408.39 431.37l-24.64 22.14 44.29 38.93 24.64-23.57-44.29-37.5z" />
  </g>
  <metadata>
    <rdf:RDF>
      <cc:Work>
        <dc:format>image/svg+xml</dc:format>
        <dc:type rdf:resource="http://purl.org/dc/dcmitype/StillImage" />
        <cc:license rdf:resource="http://creativecommons.org/licenses/publicdomain/" />
        <dc:publisher>
          <cc:Agent rdf:about="http://openclipart.org/">
            <dc:title>Openclipart</dc:title>
          </cc:Agent>
        </dc:publisher>
        <dc:title>Cahier spirale / spiral notebook</dc:title>
        <dc:date>2010-04-18T19:38:12</dc:date>
        <dc:description />
        <dc:source>https://openclipart.org/detail/48847/cahier-spirale-/-spiral-notebook-by-lmproulx</dc:source>
        <dc:creator>
          <cc:Agent>
            <dc:title>lmproulx</dc:title>
          </cc:Agent>
        </dc:creator>
        <dc:subject>
          <rdf:Bag>
            <rdf:li>spiral notebook</rdf:li>
          </rdf:Bag>
        </dc:subject>
      </cc:Work>
      <cc:License rdf:about="http://creativecommons.org/licenses/publicdomain/">
        <cc:permits rdf:resource="http://creativecommons.org/ns#Reproduction" />
        <cc:permits rdf:resource="http://creativecommons.org/ns#Distribution" />
        <cc:permits rdf:resource="http://creativecommons.org/ns#DerivativeWorks" />
      </cc:License>
    </rdf:RDF>
  </metadata>
</svg>